<?xml version="1.0" encoding="utf-8"?>
<!-- Generator: Adobe Illustrator 17.0.0, SVG Export Plug-In . SVG Version: 6.00 Build 0)  -->
<!DOCTYPE svg PUBLIC "-//W3C//DTD SVG 1.1//EN" "http://www.w3.org/Graphics/SVG/1.1/DTD/svg11.dtd">
<svg version="1.1" id="Layer_1" xmlns="http://www.w3.org/2000/svg" xmlns:xlink="http://www.w3.org/1999/xlink" x="0px" y="0px"
	 width="200px" height="70px" viewBox="0 0 200 70" enable-background="new 0 0 200 70" xml:space="preserve">
<g>
	<path fill="#020202" d="M48.181,41.724c0.01-4.838,1.16-9.441,3.049-13.859c0.408-0.954,0.218-1.454-0.466-2.103
		c-5.514-5.237-14.108-6.31-20.737-2.549c-0.179,0.101-0.345,0.233-0.534,0.307c-0.464,0.183-0.994,0.982-1.41,0.198
		c-0.364-0.686,0.507-0.879,0.934-1.15c1.483-0.939,3.072-1.707,4.796-2.029c1.233-0.23,1.874-0.844,2.482-1.932
		c2.396-4.292,6.456-5.203,10.951-5.058c0.613,0.02,1.226,0.133,1.832,0.241c0.351,0.062,0.767,0.163,0.714,0.643
		c-0.07,0.63-0.582,0.486-0.956,0.412c-1.895-0.374-3.782-0.359-5.661,0.065c-2.284,0.515-4.219,1.598-5.561,3.577
		c-0.247,0.365-0.709,0.759-0.449,1.219c0.218,0.386,0.752,0.176,1.14,0.173c5.004-0.039,9.379,1.609,13.064,4.978
		c0.793,0.726,1.051,0.55,1.535-0.266c3.22-5.424,7.691-9.444,13.537-11.891c3.161-1.323,6.469-1.986,9.868-2.281
		c0.945-0.082,1.329,0.235,1.193,1.218c-0.688,4.988-1.356,9.979-2.016,14.971c-0.088,0.664-0.466,0.973-1.06,1.152
		c-4.712,1.425-8.133,4.661-11.199,8.271c-0.961,1.132-1.913,2.403-2.438,3.878c-0.17,0.477-0.375,1.114-1.044,0.823
		c-0.84-0.365-0.119-0.882,0.06-1.247c0.988-2.018,2.174-3.885,3.735-5.551c2.843-3.033,5.932-5.659,9.949-6.983
		c0.681-0.224,0.937-0.616,1.028-1.322c0.554-4.28,1.154-8.554,1.751-12.828c0.115-0.822,0.147-1.329-1.038-1.19
		c-9.341,1.09-16.506,5.551-21.466,13.569c-0.603,0.975-0.57,1.63,0.101,2.574c5.36,7.535,4.546,17.727-1.877,24.33
		c-1.361,1.4-1.588,1.34-2.27-0.532c-0.583-1.6-0.964-3.247-1.222-4.927C48.249,45.004,48.119,43.372,48.181,41.724z M56.283,38.882
		c-0.034-0.7-0.034-1.212-0.089-1.718c-0.334-3.059-1.363-5.879-2.958-8.5c-0.468-0.77-0.905-0.97-1.26,0.086
		c-0.408,1.214-0.871,2.412-1.231,3.64c-1.737,5.922-2.085,11.87-0.334,17.867c0.356,1.219,0.726,1.256,1.515,0.32
		C54.825,47.138,56.293,43.189,56.283,38.882z"/>
	<path fill="#020202" d="M71.803,16.169c0.397-0.051,0.661-0.034,0.778,0.251c0.149,0.36-0.045,0.591-0.362,0.721
		c-0.284,0.116-0.583,0.199-0.876,0.293c-4.743,1.515-8.641,4.234-11.675,8.187c-0.063,0.082-0.123,0.165-0.191,0.242
		c-0.319,0.367-0.608,1.106-1.16,0.693c-0.67-0.502,0.057-0.995,0.357-1.405c0.484-0.662,1.018-1.291,1.569-1.9
		c2.966-3.28,6.587-5.534,10.802-6.848C71.338,16.31,71.632,16.221,71.803,16.169z"/>
	<path fill="#020202" d="M59.747,32.343c-0.489-0.007-0.62-0.326-0.465-0.716c0.206-0.517,0.445-1.04,0.77-1.488
		c2.753-3.785,6.284-6.598,10.634-8.35c0.422-0.17,1.036-0.69,1.35-0.021c0.393,0.837-0.534,0.85-0.962,1.032
		c-4.361,1.852-8.006,4.546-10.468,8.684C60.404,31.823,60.218,32.223,59.747,32.343z"/>
	<path fill="#020202" d="M42.283,18.151c-0.569,0.018-0.826-0.26-0.85-0.727c-0.022-0.429,0.264-0.648,0.662-0.682
		c0.397-0.034,0.713,0.146,0.783,0.555C42.962,17.788,42.659,18.036,42.283,18.151z"/>
</g>
<text transform="matrix(1 0 0 1 92.9178 38)"><tspan x="0" y="0" fill="#020202" font-family="'Roboto-Thin'" font-size="20"> </tspan><tspan x="4.785" y="0" fill="#020202" font-family="'Roboto-Regular'" font-size="21">Learning</tspan></text>
<text transform="matrix(1 0 0 1 79.5843 53.059)" fill="#020202" font-family="'Roboto-Thin'" font-size="58">I</text>
</svg>
